<svg xmlns="http://www.w3.org/2000/svg" viewBox="0 0 100 100" width="100" height="100">
<path transform="matrix(1,0,0,-1,36.521,23.542702)" d="M0 0V13.239L-13.479 0Z" fill="#FF2EE9"/>
<path transform="matrix(1,0,0,-1,36.521,36.7818)" d="M0 0V13.239L-13.479 0Z" fill="#FF2EE9"/>
<path transform="matrix(1,0,0,-1,23.0421,36.7818)" d="M0 0V13.239L-13.479 0Z" fill="#FF2EE9"/>
<path transform="matrix(1,0,0,-1,63.479,23.614602)" d="M0 0V13.239L-13.479 0Z" fill="#FF2EE9"/>
<path transform="matrix(1,0,0,-1,63.479,36.8538)" d="M0 0V13.239L-13.479 0Z" fill="#FF2EE9"/>
<path transform="matrix(1,0,0,-1,50,36.8538)" d="M0 0V13.239L-13.479 0Z" fill="#FF2EE9"/>
<path transform="matrix(1,0,0,-1,36.521,50.1649)" d="M0 0V13.239L-13.479 0Z" fill="#FF2EE9"/>
<path transform="matrix(1,0,0,-1,36.521,63.404)" d="M0 0V13.239L-13.479 0Z" fill="#FF2EE9"/>
<path transform="matrix(1,0,0,-1,23.0421,63.404)" d="M0 0V13.239L-13.479 0Z" fill="#FF2EE9"/>
<path transform="matrix(1,0,0,-1,90.4369,50.1649)" d="M0 0V13.239L-13.479 0Z" fill="#FF2EE9"/>
<path transform="matrix(1,0,0,-1,90.4369,63.404)" d="M0 0V13.239L-13.479 0Z" fill="#FF2EE9"/>
<path transform="matrix(1,0,0,-1,76.9579,63.404)" d="M0 0V13.239L-13.479 0Z" fill="#FF2EE9"/>
<path transform="matrix(1,0,0,-1,63.479,76.4573)" d="M0 0V13.239L-13.479 0Z" fill="#FF2EE9"/>
<path transform="matrix(1,0,0,-1,63.479,89.6965)" d="M0 0V13.239L-13.479 0Z" fill="#FF2EE9"/>
<path transform="matrix(1,0,0,-1,50,89.6965)" d="M0 0V13.239L-13.479 0Z" fill="#FF2EE9"/>
</svg>
